<svg xmlns:xlink="http://www.w3.org/1999/xlink" xmlns="http://www.w3.org/2000/svg" viewBox="0 0 24 24" width="24"  height="24" ><defs><g id="ui-icon-fire" viewBox="0 0 20 20">
<path d="M14.9817 9.29572C14.7793 9.03171 14.5329 8.8029 14.3041 8.57409C13.7145 8.04606 13.0456 7.66764 12.4824 7.11321C11.486 6.13683 11.079 4.67766 11.3079 3.31885C11.3932 2.81244 10.953 2.3161 10.5056 2.56826C10.1542 2.76632 9.82751 2.99853 9.52546 3.24102C7.24615 5.07151 6.3485 8.30127 7.42216 11.0734C7.45736 11.1614 7.49256 11.2494 7.49256 11.3638C7.49256 11.5574 7.36055 11.7334 7.18455 11.8039C6.98214 11.8919 6.77092 11.8391 6.60372 11.6982C6.55091 11.6542 6.51571 11.6102 6.48051 11.5486C6.02925 10.9776 5.75014 10.2942 5.64237 9.58309C5.54699 8.9538 4.70017 8.51622 4.43263 9.09373C3.98868 10.052 3.77785 11.1298 3.84038 12.1735C3.89318 12.6135 3.94598 13.0535 4.09559 13.4935C4.2188 14.0216 4.45641 14.5496 4.72042 15.016C5.67087 16.5385 7.31655 17.6297 9.08544 17.8498C10.9687 18.0874 12.984 17.7442 14.4273 16.4417C16.0378 14.9808 16.601 12.6399 15.7738 10.6334L15.6594 10.4046C15.4746 9.99976 14.9817 9.29572 14.9817 9.29572ZM12.2008 14.84C11.9544 15.0512 11.5496 15.28 11.2327 15.368C10.5182 15.6232 9.80358 15.4344 9.24326 15.0899C8.97628 14.9257 9.0751 14.5425 9.34969 14.3914C9.99764 14.0349 10.3962 13.4412 10.5375 12.8423C10.6871 12.1383 10.4055 11.5574 10.2911 10.8798C10.2373 10.5481 10.2155 10.2415 10.2384 9.94018C10.2647 9.59462 10.6858 9.56464 10.8834 9.84938C10.9196 9.90155 10.9568 9.95182 10.9951 9.99976C11.6728 10.8798 12.7376 11.267 12.9664 12.4639C13.0016 12.5871 13.0192 12.7103 13.0192 12.8423C13.0456 13.5639 12.7288 14.356 12.2008 14.84Z" fill="url(#paint0_radial_923_68543)"></path>
<defs>
<radialGradient id="paint0_radial_923_68543" cx="0" cy="0" r="1" gradientUnits="userSpaceOnUse" gradientTransform="translate(13 21.5005) rotate(-115.942) scale(20.573 28.2969)">
<stop stop-color="#F58540"></stop>
<stop offset="0.541667" stop-color="#F99F3E"></stop>
<stop offset="1" stop-color="#FEC23B"></stop>
</radialGradient>
</defs>
</g></defs><use xlink:href="#ui-icon-fire"></use></svg>